<?xml version="1.0" encoding="utf-8"?>
<!-- Generator: Adobe Illustrator 27.9.0, SVG Export Plug-In . SVG Version: 6.00 Build 0)  -->
<svg version="1.1" id="Layer_1" xmlns="http://www.w3.org/2000/svg" xmlns:xlink="http://www.w3.org/1999/xlink" x="0px" y="0px"
	 viewBox="0 0 1183 459" style="enable-background:new 0 0 1183 459;" xml:space="preserve">
<style type="text/css">
	.st0{fill:#0077D9;}
	.st1{enable-background:new    ;}
	.st2{font-family:'Voltaire-Regular';}
	.st3{font-size:30.664px;}
	.st4{font-size:27.7316px;}
	.st5{font-size:21.5143px;}
	.st6{fill:#FFF51F;stroke:#000000;stroke-miterlimit:10;}
</style>
<path class="st0" d="M223.74,142.65c2.32,0,4.2-1.88,4.2-4.2v-10.26c0-2.32-1.88-4.2-4.2-4.2h-5.83c0-1.48,0.09-2.95,0.26-4.43
	c0.26-1.56,0.7-2.95,1.3-4.17c0.61-1.22,1.39-2.17,2.35-2.87c0.95-0.78,2.17-1.17,3.65-1.17v-6.51c-2.43,0-4.56,0.52-6.39,1.56
	c-1.81,1.03-3.37,2.46-4.56,4.17c-1.19,1.89-2.07,3.96-2.61,6.13c-0.54,2.39-0.8,4.84-0.78,7.3v14.46c0,2.32,1.88,4.2,4.2,4.2
	L223.74,142.65L223.74,142.65z M198.52,142.65c2.32,0,4.2-1.88,4.2-4.2v-10.26c0-2.32-1.88-4.2-4.2-4.2h-5.83
	c0-1.48,0.09-2.95,0.26-4.43c0.26-1.56,0.7-2.95,1.3-4.17c0.61-1.22,1.39-2.17,2.35-2.87c0.95-0.78,2.17-1.17,3.65-1.17v-6.51
	c-2.43,0-4.56,0.52-6.39,1.56c-1.81,1.03-3.37,2.46-4.56,4.17c-1.19,1.89-2.07,3.96-2.61,6.13c-0.54,2.39-0.8,4.84-0.78,7.3v14.46
	c0,2.32,1.88,4.2,4.2,4.2L198.52,142.65L198.52,142.65z"/>
<text transform="matrix(1 0 0 1 250.0665 137.4698)" class="st1"><tspan x="0" y="0" class="st2 st3">They were very prompt and when they gave me a quote they</tspan><tspan x="-13.71" y="36.8" class="st2 st3">stood behind it. Communication throughout the whole process </tspan><tspan x="-62.81" y="73.59" class="st2 st3">was awesome. They picked up my car at my home which was convenient</tspan><tspan x="-50.34" y="110.39" class="st2 st3">for me since I have three young kids. My overall experience was great.</tspan></text>
<path class="st0" d="M958.28,99.66c-2.32,0-4.2,1.88-4.2,4.2v10.26c0,2.32,1.88,4.2,4.2,4.2h5.83c0,1.48-0.09,2.95-0.26,4.43
	c-0.26,1.56-0.7,2.95-1.3,4.17c-0.61,1.22-1.39,2.17-2.35,2.87c-0.95,0.78-2.17,1.17-3.65,1.17v6.51c2.43,0,4.56-0.52,6.39-1.56
	c1.81-1.03,3.37-2.46,4.56-4.17c1.19-1.89,2.07-3.96,2.61-6.13c0.54-2.39,0.8-4.84,0.78-7.3v-14.45c0-2.32-1.88-4.2-4.2-4.2H958.28z
	 M983.48,99.66c-2.32,0-4.2,1.88-4.2,4.2v10.26c0,2.32,1.88,4.2,4.2,4.2h5.83c0,1.48-0.09,2.95-0.26,4.43
	c-0.26,1.56-0.7,2.95-1.3,4.17c-0.61,1.22-1.39,2.17-2.35,2.87c-0.95,0.78-2.17,1.17-3.65,1.17v6.51c2.43,0,4.56-0.52,6.39-1.56
	c1.81-1.03,3.37-2.46,4.56-4.17c1.19-1.89,2.07-3.96,2.61-6.13c0.54-2.39,0.8-4.84,0.78-7.3v-14.45c0-2.32-1.88-4.2-4.2-4.2H983.48z
	"/>
<text transform="matrix(1 0 0 1 486.2911 310.5894)" class="st0 st2 st4">A. Moore, Denver CO</text>
<g>
	<text transform="matrix(1 0 0 1 549.8418 345.8022)" class="st0 st2 st5">May 2021</text>
</g>
<g>
	<path class="st6" d="M521.13,389.41c-0.58,0.3-1.23-0.22-1.11-0.88l1.24-7.07l-5.26-5.01c-0.49-0.47-0.24-1.33,0.42-1.42l7.32-1.04
		l3.26-6.46c0.29-0.58,1.09-0.58,1.38,0l3.26,6.46l7.32,1.04c0.66,0.09,0.91,0.95,0.42,1.42l-5.26,5.01l1.24,7.07
		c0.12,0.66-0.54,1.18-1.11,0.88l-6.56-3.37L521.13,389.41L521.13,389.41z"/>
	<path class="st6" d="M559.4,389.74c-0.58,0.3-1.23-0.22-1.11-0.88l1.24-7.07l-5.26-5.01c-0.49-0.47-0.24-1.33,0.42-1.42l7.32-1.04
		l3.26-6.46c0.29-0.58,1.09-0.58,1.38,0l3.26,6.46l7.32,1.04c0.66,0.09,0.91,0.95,0.42,1.42l-5.26,5.01l1.24,7.07
		c0.12,0.66-0.54,1.18-1.11,0.88l-6.56-3.37L559.4,389.74L559.4,389.74z"/>
	<path class="st6" d="M597.78,389.74c-0.58,0.3-1.23-0.22-1.11-0.88l1.24-7.07l-5.26-5.01c-0.49-0.47-0.24-1.33,0.42-1.42l7.32-1.04
		l3.26-6.46c0.29-0.58,1.09-0.58,1.38,0l3.26,6.46l7.32,1.04c0.66,0.09,0.91,0.95,0.42,1.42l-5.26,5.01l1.24,7.07
		c0.12,0.66-0.54,1.18-1.11,0.88l-6.56-3.37L597.78,389.74L597.78,389.74z"/>
	<path class="st6" d="M636.17,389.74c-0.58,0.3-1.23-0.22-1.11-0.88l1.24-7.07l-5.26-5.01c-0.49-0.47-0.24-1.33,0.42-1.42l7.32-1.04
		l3.26-6.46c0.29-0.58,1.09-0.58,1.38,0l3.26,6.46l7.32,1.04c0.66,0.09,0.91,0.95,0.42,1.42l-5.26,5.01l1.24,7.07
		c0.12,0.66-0.54,1.18-1.11,0.88l-6.56-3.37L636.17,389.74L636.17,389.74z"/>
</g>
</svg>
